<svg width="474" height="59" viewBox="0 0 474 59" fill="none" xmlns="http://www.w3.org/2000/svg">
<g clip-path="url(#clip0_102_1058)">
<path d="M25.625 36.3333H15.375C14.9219 36.3333 14.4874 36.5133 14.167 36.8337C13.8466 37.154 13.6667 37.5886 13.6667 38.0416C13.6667 38.4947 13.8466 38.9292 14.167 39.2496C14.4874 39.57 14.9219 39.75 15.375 39.75H25.625C26.0781 39.75 26.5126 39.57 26.833 39.2496C27.1533 38.9292 27.3333 38.4947 27.3333 38.0416C27.3333 37.5886 27.1533 37.154 26.833 36.8337C26.5126 36.5133 26.0781 36.3333 25.625 36.3333Z" fill="#3167FB"/>
<path d="M15.375 32.9167H20.5C20.9531 32.9167 21.3876 32.7367 21.708 32.4163C22.0283 32.0959 22.2083 31.6614 22.2083 31.2083C22.2083 30.7553 22.0283 30.3207 21.708 30.0004C21.3876 29.68 20.9531 29.5 20.5 29.5H15.375C14.9219 29.5 14.4874 29.68 14.167 30.0004C13.8466 30.3207 13.6667 30.7553 13.6667 31.2083C13.6667 31.6614 13.8466 32.0959 14.167 32.4163C14.4874 32.7367 14.9219 32.9167 15.375 32.9167Z" fill="#3167FB"/>
<path d="M33.7225 23.2304L24.4292 12.9804C24.2695 12.8035 24.0745 12.6619 23.8567 12.5648C23.639 12.4677 23.4034 12.4173 23.165 12.4167H11.2067C10.6391 12.4099 10.0757 12.515 9.54874 12.726C9.02177 12.937 8.54151 13.2497 8.1354 13.6463C7.72929 14.0429 7.40528 14.5156 7.18187 15.0374C6.95847 15.5592 6.84003 16.1199 6.83334 16.6875V42.3125C6.84003 42.8801 6.95847 43.4408 7.18187 43.9627C7.40528 44.4845 7.72929 44.9572 8.1354 45.3538C8.54151 45.7504 9.02177 46.0631 9.54874 46.274C10.0757 46.485 10.6391 46.5901 11.2067 46.5834H29.7933C30.3609 46.5901 30.9243 46.485 31.4513 46.274C31.9783 46.0631 32.4585 45.7504 32.8646 45.3538C33.2707 44.9572 33.5947 44.4845 33.8181 43.9627C34.0416 43.4408 34.16 42.8801 34.1667 42.3125V24.375C34.1656 23.9516 34.0073 23.5437 33.7225 23.2304ZM23.9167 17.5417L28.5975 22.6667H25.1808C25.0019 22.6559 24.827 22.6096 24.6662 22.5304C24.5054 22.4513 24.362 22.3409 24.2443 22.2057C24.1266 22.0705 24.037 21.9133 23.9808 21.7431C23.9245 21.5729 23.9027 21.3933 23.9167 21.2146V17.5417ZM29.7933 43.1667H11.2067C11.0877 43.1736 10.9686 43.157 10.8561 43.1178C10.7436 43.0786 10.6399 43.0175 10.551 42.9382C10.4622 42.8588 10.3898 42.7627 10.3382 42.6554C10.2865 42.548 10.2566 42.4315 10.25 42.3125V16.6875C10.2566 16.5686 10.2865 16.4521 10.3382 16.3447C10.3898 16.2373 10.4622 16.1412 10.551 16.0619C10.6399 15.9825 10.7436 15.9215 10.8561 15.8823C10.9686 15.8431 11.0877 15.8264 11.2067 15.8334H20.5V21.2146C20.4724 22.473 20.9438 23.6912 21.8111 24.6034C22.6785 25.5155 23.8714 26.0476 25.1296 26.0834H30.75V42.3125C30.7435 42.4315 30.7135 42.548 30.6619 42.6554C30.6102 42.7627 30.5379 42.8588 30.449 42.9382C30.3601 43.0175 30.2564 43.0786 30.1439 43.1178C30.0314 43.157 29.9123 43.1736 29.7933 43.1667Z" fill="#3167FB"/>
</g>
<path d="M65.416 30.296L64.312 34.136H72.328L71.224 30.296C70.712 28.632 70.216 26.92 69.736 25.16C69.288 23.4 68.84 21.656 68.392 19.928H68.2C67.784 21.688 67.336 23.448 66.856 25.208C66.408 26.936 65.928 28.632 65.416 30.296ZM54.904 47L65.128 15.608H71.656L81.88 47H76.024L73.576 38.504H63.016L60.568 47H54.904ZM193.187 47V15.608H198.755V29.864H198.899L210.083 15.608H216.275L206.627 27.848L217.907 47H211.763L203.267 32.216L198.755 37.832V47H193.187ZM246.578 47V15.608H252.29L262.082 33.272L265.298 39.944H265.49C265.362 38.344 265.202 36.6 265.01 34.712C264.85 32.824 264.77 31 264.77 29.24V15.608H270.098V47H264.386L254.594 29.336L251.378 22.664H251.186C251.314 24.328 251.458 26.072 251.618 27.896C251.81 29.72 251.906 31.512 251.906 33.272V47H246.578Z" fill="#3167FB"/>
<path d="M91.8456 47.576C90.2456 47.576 88.6456 47.272 87.0456 46.664C85.4456 46.024 84.0696 45.24 82.9176 44.312L85.5096 40.76C86.5656 41.56 87.6216 42.2 88.6776 42.68C89.7336 43.16 90.8536 43.4 92.0376 43.4C93.3176 43.4 94.2616 43.128 94.8696 42.584C95.4776 42.04 95.7816 41.368 95.7816 40.568C95.7816 39.896 95.5256 39.352 95.0136 38.936C94.5336 38.488 93.9096 38.104 93.1416 37.784C92.3736 37.432 91.5736 37.096 90.7416 36.776C89.7176 36.392 88.6936 35.928 87.6696 35.384C86.6776 34.808 85.8616 34.088 85.2216 33.224C84.5816 32.328 84.2616 31.224 84.2616 29.912C84.2616 27.832 85.0296 26.136 86.5656 24.824C88.1016 23.512 90.1816 22.856 92.8056 22.856C94.4696 22.856 95.9576 23.144 97.2696 23.72C98.5816 24.296 99.7176 24.952 100.678 25.688L98.1336 29.048C97.3016 28.44 96.4536 27.96 95.5896 27.608C94.7576 27.224 93.8776 27.032 92.9496 27.032C91.7656 27.032 90.8856 27.288 90.3096 27.8C89.7336 28.28 89.4456 28.888 89.4456 29.624C89.4456 30.552 89.9256 31.256 90.8856 31.736C91.8456 32.216 92.9656 32.68 94.2456 33.128C95.3336 33.512 96.3896 33.992 97.4136 34.568C98.4376 35.112 99.2856 35.832 99.9576 36.728C100.662 37.624 101.014 38.808 101.014 40.28C101.014 42.296 100.23 44.024 98.6616 45.464C97.0936 46.872 94.8216 47.576 91.8456 47.576ZM105.942 47V13.112H111.462V21.848L111.27 26.408C112.262 25.48 113.366 24.664 114.582 23.96C115.798 23.224 117.206 22.856 118.806 22.856C121.334 22.856 123.174 23.672 124.326 25.304C125.478 26.936 126.054 29.24 126.054 32.216V47H120.534V32.936C120.534 30.984 120.246 29.608 119.67 28.808C119.094 28.008 118.15 27.608 116.838 27.608C115.814 27.608 114.902 27.864 114.102 28.376C113.334 28.856 112.454 29.576 111.462 30.536V47H105.942ZM132.707 47V23.432H138.227V47H132.707ZM135.491 19.304C134.499 19.304 133.699 19.016 133.091 18.44C132.483 17.864 132.179 17.096 132.179 16.136C132.179 15.208 132.483 14.456 133.091 13.88C133.699 13.304 134.499 13.016 135.491 13.016C136.483 13.016 137.283 13.304 137.891 13.88C138.499 14.456 138.803 15.208 138.803 16.136C138.803 17.096 138.499 17.864 137.891 18.44C137.283 19.016 136.483 19.304 135.491 19.304ZM151.846 47.576C150.246 47.576 148.646 47.272 147.046 46.664C145.446 46.024 144.07 45.24 142.918 44.312L145.51 40.76C146.566 41.56 147.622 42.2 148.678 42.68C149.734 43.16 150.854 43.4 152.038 43.4C153.318 43.4 154.262 43.128 154.87 42.584C155.478 42.04 155.782 41.368 155.782 40.568C155.782 39.896 155.526 39.352 155.014 38.936C154.534 38.488 153.91 38.104 153.142 37.784C152.374 37.432 151.574 37.096 150.742 36.776C149.718 36.392 148.694 35.928 147.67 35.384C146.678 34.808 145.862 34.088 145.222 33.224C144.582 32.328 144.262 31.224 144.262 29.912C144.262 27.832 145.03 26.136 146.566 24.824C148.102 23.512 150.182 22.856 152.806 22.856C154.47 22.856 155.958 23.144 157.27 23.72C158.582 24.296 159.718 24.952 160.678 25.688L158.134 29.048C157.302 28.44 156.454 27.96 155.59 27.608C154.758 27.224 153.878 27.032 152.95 27.032C151.766 27.032 150.886 27.288 150.31 27.8C149.734 28.28 149.446 28.888 149.446 29.624C149.446 30.552 149.926 31.256 150.886 31.736C151.846 32.216 152.966 32.68 154.246 33.128C155.334 33.512 156.39 33.992 157.414 34.568C158.438 35.112 159.286 35.832 159.958 36.728C160.662 37.624 161.014 38.808 161.014 40.28C161.014 42.296 160.23 44.024 158.662 45.464C157.094 46.872 154.822 47.576 151.846 47.576ZM165.942 47V13.112H171.462V21.848L171.27 26.408C172.262 25.48 173.366 24.664 174.582 23.96C175.798 23.224 177.206 22.856 178.806 22.856C181.334 22.856 183.174 23.672 184.326 25.304C185.478 26.936 186.054 29.24 186.054 32.216V47H180.534V32.936C180.534 30.984 180.246 29.608 179.67 28.808C179.094 28.008 178.15 27.608 176.838 27.608C175.814 27.608 174.902 27.864 174.102 28.376C173.334 28.856 172.454 29.576 171.462 30.536V47H165.942ZM227.06 47.576C225.012 47.576 223.332 46.936 222.02 45.656C220.74 44.376 220.1 42.712 220.1 40.664C220.1 38.136 221.204 36.184 223.412 34.808C225.62 33.4 229.14 32.44 233.972 31.928C233.94 30.68 233.604 29.608 232.964 28.712C232.356 27.784 231.252 27.32 229.652 27.32C228.5 27.32 227.364 27.544 226.244 27.992C225.156 28.44 224.084 28.984 223.028 29.624L221.012 25.928C222.324 25.096 223.796 24.376 225.428 23.768C227.092 23.16 228.852 22.856 230.708 22.856C233.652 22.856 235.844 23.736 237.284 25.496C238.756 27.224 239.492 29.736 239.492 33.032V47H234.932L234.548 44.408H234.356C233.3 45.304 232.164 46.056 230.948 46.664C229.764 47.272 228.468 47.576 227.06 47.576ZM228.836 43.256C229.796 43.256 230.66 43.032 231.428 42.584C232.228 42.104 233.076 41.464 233.972 40.664V35.384C230.772 35.8 228.548 36.424 227.3 37.256C226.052 38.056 225.428 39.048 225.428 40.232C225.428 41.288 225.748 42.056 226.388 42.536C227.028 43.016 227.844 43.256 228.836 43.256ZM287.678 47.576C285.502 47.576 283.534 47.096 281.774 46.136C280.014 45.144 278.622 43.736 277.598 41.912C276.574 40.056 276.062 37.832 276.062 35.24C276.062 32.68 276.574 30.472 277.598 28.616C278.654 26.76 280.014 25.336 281.678 24.344C283.342 23.352 285.086 22.856 286.91 22.856C289.054 22.856 290.846 23.336 292.286 24.296C293.726 25.224 294.814 26.536 295.55 28.232C296.286 29.896 296.654 31.832 296.654 34.04C296.654 35.192 296.574 36.088 296.414 36.728H281.438C281.694 38.808 282.446 40.424 283.694 41.576C284.942 42.728 286.51 43.304 288.398 43.304C289.422 43.304 290.366 43.16 291.23 42.872C292.126 42.552 293.006 42.12 293.87 41.576L295.742 45.032C294.622 45.768 293.374 46.376 291.998 46.856C290.622 47.336 289.182 47.576 287.678 47.576ZM281.39 32.984H291.854C291.854 31.16 291.454 29.736 290.654 28.712C289.854 27.656 288.654 27.128 287.054 27.128C285.678 27.128 284.446 27.64 283.358 28.664C282.302 29.656 281.646 31.096 281.39 32.984ZM305.814 47L299.574 23.432H305.142L307.974 35.672C308.23 36.792 308.438 37.912 308.598 39.032C308.79 40.152 308.998 41.288 309.222 42.44H309.414C309.638 41.288 309.862 40.152 310.086 39.032C310.342 37.88 310.614 36.76 310.902 35.672L313.974 23.432H319.014L322.134 35.672C322.422 36.792 322.694 37.912 322.95 39.032C323.206 40.152 323.462 41.288 323.718 42.44H323.91C324.134 41.288 324.342 40.152 324.534 39.032C324.726 37.912 324.934 36.792 325.158 35.672L327.99 23.432H333.174L327.174 47H320.598L317.862 36.008C317.606 34.888 317.366 33.784 317.142 32.696C316.918 31.576 316.678 30.392 316.422 29.144H316.23C316.006 30.392 315.782 31.576 315.558 32.696C315.334 33.816 315.094 34.936 314.838 36.056L312.15 47H305.814ZM344.408 47.576C342.808 47.576 341.208 47.272 339.608 46.664C338.008 46.024 336.632 45.24 335.48 44.312L338.072 40.76C339.128 41.56 340.184 42.2 341.24 42.68C342.296 43.16 343.416 43.4 344.6 43.4C345.88 43.4 346.824 43.128 347.432 42.584C348.04 42.04 348.344 41.368 348.344 40.568C348.344 39.896 348.088 39.352 347.576 38.936C347.096 38.488 346.472 38.104 345.704 37.784C344.936 37.432 344.136 37.096 343.304 36.776C342.28 36.392 341.256 35.928 340.232 35.384C339.24 34.808 338.424 34.088 337.784 33.224C337.144 32.328 336.824 31.224 336.824 29.912C336.824 27.832 337.592 26.136 339.128 24.824C340.664 23.512 342.744 22.856 345.368 22.856C347.032 22.856 348.52 23.144 349.832 23.72C351.144 24.296 352.28 24.952 353.24 25.688L350.696 29.048C349.864 28.44 349.016 27.96 348.152 27.608C347.32 27.224 346.44 27.032 345.512 27.032C344.328 27.032 343.448 27.288 342.872 27.8C342.296 28.28 342.008 28.888 342.008 29.624C342.008 30.552 342.488 31.256 343.448 31.736C344.408 32.216 345.528 32.68 346.808 33.128C347.896 33.512 348.952 33.992 349.976 34.568C351 35.112 351.848 35.832 352.52 36.728C353.224 37.624 353.576 38.808 353.576 40.28C353.576 42.296 352.792 44.024 351.224 45.464C349.656 46.872 347.384 47.576 344.408 47.576ZM363.88 47.576C361.928 47.576 360.536 46.984 359.704 45.8C358.904 44.616 358.504 43 358.504 40.952V13.112H364.024V41.24C364.024 41.912 364.152 42.392 364.408 42.68C364.664 42.936 364.936 43.064 365.224 43.064C365.352 43.064 365.464 43.064 365.56 43.064C365.688 43.032 365.864 43 366.088 42.968L366.808 47.096C366.488 47.224 366.072 47.336 365.56 47.432C365.08 47.528 364.52 47.576 363.88 47.576ZM381.615 47.576C379.439 47.576 377.471 47.096 375.711 46.136C373.951 45.144 372.559 43.736 371.535 41.912C370.511 40.056 369.999 37.832 369.999 35.24C369.999 32.68 370.511 30.472 371.535 28.616C372.591 26.76 373.951 25.336 375.615 24.344C377.279 23.352 379.023 22.856 380.847 22.856C382.991 22.856 384.783 23.336 386.223 24.296C387.663 25.224 388.751 26.536 389.487 28.232C390.223 29.896 390.591 31.832 390.591 34.04C390.591 35.192 390.511 36.088 390.351 36.728H375.375C375.631 38.808 376.383 40.424 377.631 41.576C378.879 42.728 380.447 43.304 382.335 43.304C383.359 43.304 384.303 43.16 385.167 42.872C386.063 42.552 386.943 42.12 387.807 41.576L389.679 45.032C388.559 45.768 387.311 46.376 385.935 46.856C384.559 47.336 383.119 47.576 381.615 47.576ZM375.327 32.984H385.791C385.791 31.16 385.391 29.736 384.591 28.712C383.791 27.656 382.591 27.128 380.991 27.128C379.615 27.128 378.383 27.64 377.295 28.664C376.239 29.656 375.583 31.096 375.327 32.984ZM403.699 47.576C400.979 47.576 399.043 46.792 397.891 45.224C396.771 43.624 396.211 41.56 396.211 39.032V27.8H392.851V23.672L396.499 23.432L397.171 17H401.779V23.432H407.779V27.8H401.779V39.032C401.779 41.784 402.883 43.16 405.091 43.16C405.507 43.16 405.939 43.112 406.387 43.016C406.835 42.888 407.219 42.76 407.539 42.632L408.499 46.712C407.859 46.936 407.123 47.128 406.291 47.288C405.491 47.48 404.627 47.576 403.699 47.576ZM420.105 47.576C417.385 47.576 415.449 46.792 414.297 45.224C413.177 43.624 412.617 41.56 412.617 39.032V27.8H409.257V23.672L412.905 23.432L413.577 17H418.185V23.432H424.185V27.8H418.185V39.032C418.185 41.784 419.289 43.16 421.497 43.16C421.913 43.16 422.345 43.112 422.793 43.016C423.241 42.888 423.625 42.76 423.945 42.632L424.905 46.712C424.265 46.936 423.529 47.128 422.697 47.288C421.897 47.48 421.033 47.576 420.105 47.576ZM438.475 47.576C436.299 47.576 434.331 47.096 432.571 46.136C430.811 45.144 429.419 43.736 428.395 41.912C427.371 40.056 426.859 37.832 426.859 35.24C426.859 32.68 427.371 30.472 428.395 28.616C429.451 26.76 430.811 25.336 432.475 24.344C434.139 23.352 435.883 22.856 437.707 22.856C439.851 22.856 441.643 23.336 443.083 24.296C444.523 25.224 445.611 26.536 446.347 28.232C447.083 29.896 447.451 31.832 447.451 34.04C447.451 35.192 447.371 36.088 447.211 36.728H432.235C432.491 38.808 433.243 40.424 434.491 41.576C435.739 42.728 437.307 43.304 439.195 43.304C440.219 43.304 441.163 43.16 442.027 42.872C442.923 42.552 443.803 42.12 444.667 41.576L446.539 45.032C445.419 45.768 444.171 46.376 442.795 46.856C441.419 47.336 439.979 47.576 438.475 47.576ZM432.187 32.984H442.651C442.651 31.16 442.251 29.736 441.451 28.712C440.651 27.656 439.451 27.128 437.851 27.128C436.475 27.128 435.243 27.64 434.155 28.664C433.099 29.656 432.443 31.096 432.187 32.984ZM452.723 47V23.432H457.283L457.667 27.608H457.859C458.691 26.072 459.699 24.904 460.883 24.104C462.067 23.272 463.283 22.856 464.531 22.856C465.651 22.856 466.547 23.016 467.219 23.336L466.259 28.136C465.843 28.008 465.459 27.912 465.107 27.848C464.755 27.784 464.323 27.752 463.811 27.752C462.883 27.752 461.907 28.12 460.883 28.856C459.859 29.56 458.979 30.808 458.243 32.6V47H452.723Z" fill="black"/>
<defs>
<clipPath id="clip0_102_1058">
<rect width="41" height="41" fill="white" transform="translate(0 9)"/>
</clipPath>
</defs>
</svg>
